<?xml version="1.0"?>
<svg width="640" height="480" xmlns="http://www.w3.org/2000/svg">
 <title>Color divider</title>

 <metadata id="metadata15">image/svg+xml</metadata>
 <g>
  <title>Layer 1</title>
  <path opacity="0.75" fill="#7f007f" fill-rule="evenodd" stroke-width="1px" d="m139.424789,190.484528c5.347214,-7.567413 3.672729,-18.679047 -0.897858,-21.884766c-8.06311,-5.856262 -16.876259,6.366302 -12.837143,18.526947c4.031113,12.517334 14.122147,21.267761 27.859741,23.769928c29.803345,5.265564 88.753922,-27.17804 126.139771,-37.105835c27.772552,-7.374969 44.737732,3.70697 53.891937,15.980652c-18.814636,-13.327148 -35.962769,-8.691956 -53.610626,-5.4198c-40.492233,7.507782 -82.376175,39.384064 -126.758072,34.370087c-20.72081,-3.095459 -35.239151,-23.671143 -34.04528,-39.805328c0.106049,-1.433746 0.336189,-2.832489 0.697144,-4.180817c2.727554,-9.561676 7.519974,-13.483307 11.765511,-14.646423c11.540588,-3.161896 22.972794,17.871887 7.794876,30.395355z" id="path2383"/>
  <path opacity="0.5" fill="#7f007f" fill-rule="evenodd" stroke-width="1px" id="path2390" d="m134.246429,202.318451c-8.213364,-7.288971 -16.686798,-18.602325 -24.247162,-23.606781c-79.487198,-52.615204 -120.226158,18.467346 -79.464813,38.894836c6.289543,3.1521 19.323471,5.044189 28.661072,-7.506348c-11.425957,8.713135 -24.104492,5.721466 -29.341927,1.216339c-13.942318,-11.992645 -9.053009,-29.009338 7.343239,-36.780975c25.82547,-9.860992 49.151749,0.688202 69.563782,15.31662c14.578674,8.735992 18.320068,12.812836 30.067017,18.15094c-6.673828,0.277222 -3.167801,-8.493958 -9.518509,-12.610016l6.937317,6.925385l0,0l0,0l0,0l-0.000015,0z"/>
  <path opacity="0.75" fill="#7f007f" fill-rule="evenodd" stroke-width="1px" d="m493.119385,186.199921c-5.671265,7.631012 -3.895264,18.836304 0.952271,22.069031c8.551758,5.905609 17.89917,-6.419983 13.615234,-18.682983c-4.275269,-12.622742 -14.978088,-21.446838 -29.548309,-23.969971c-31.609894,-5.309998 -94.133331,27.40683 -133.785309,37.418243c-29.45575,7.437042 -47.449219,-3.73822 -57.158203,-16.115265c19.954956,13.439362 38.142334,8.765167 56.859802,5.465454c42.946655,-7.571014 87.369202,-39.715729 134.441101,-34.659546c21.976685,3.121552 37.375,23.870514 36.108826,40.140564c-0.112488,1.445923 -0.356628,2.856323 -0.739441,4.216003c-2.892883,9.642181 -7.975769,13.596771 -12.478638,14.769806c-12.240051,3.188477 -24.365143,-18.0224 -8.267334,-30.651337z" id="path2479"/>
  <path opacity="0.5" fill="#7f007f" fill-rule="evenodd" stroke-width="1px" id="path2481" d="m503.146851,177.48291c8.618164,7.231323 17.509277,18.455231 25.442383,23.420135c83.405212,52.199127 126.152222,-18.32135 83.381714,-38.587433c-6.599609,-3.127014 -20.276001,-5.004028 -30.073853,7.447144c11.989197,-8.644226 25.292664,-5.676208 30.788269,-1.206726c14.629578,11.897827 9.499207,28.779938 -7.704895,36.490112c-27.098755,9.78299 -51.574829,-0.68277 -72.993042,-15.195496c-15.297485,-8.666901 -19.223267,-12.711517 -31.549072,-18.007416c7.002808,-0.275024 3.323975,8.426788 9.987793,12.510315l-7.279297,-6.870636z"/>
 </g>
</svg>
